# xmcd CD database file
#
# Track frame offsets:
#	150
#	20623
#	50950
#	80808
#	100840
#	121396
#	141884
#	165010
#	192534
#
# Disc length: 2907 seconds
#
# Revision: 0
# Processed by: cddbd v1.5.2PL0 Copyright (c) Steve Scherf et al.
# Submitted via: CDex 1.70beta2
#
DISCID=7b0b5909
DTITLE=Black Sand Diva - Chameleon
DYEAR=2009
DGENRE=Jazz
TTITLE0=01 - Blue Eyed Girls
TTITLE1=02 - Barflies
TTITLE2=03 - Samba De Piha
TTITLE3=04 - Rain
TTITLE4=05 - Gypsy
TTITLE5=06 - Eden
TTITLE6=07 - Autobahn
TTITLE7=08 - Shadow
TTITLE8=09 - Barflies (Radio Edit)
EXTD=YEAR: 2009
EXTT0=
EXTT1=
EXTT2=
EXTT3=
EXTT4=
EXTT5=
EXTT6=
EXTT7=
EXTT8=
PLAYORDER=
